<mxfile host="Electron" agent="Mozilla/5.0 (X11; Linux x86_64) AppleWebKit/537.36 (KHTML, like Gecko) draw.io/24.7.17 Chrome/128.0.6613.36 Electron/32.0.1 Safari/537.36" version="24.7.17">
  <diagram name="Page-1" id="c5AurtvYMmOyKz5a-DX1">
    <mxGraphModel dx="1674" dy="1027" grid="1" gridSize="10" guides="1" tooltips="1" connect="1" arrows="1" fold="1" page="1" pageScale="1" pageWidth="1169" pageHeight="827" math="0" shadow="0">
      <root>
        <mxCell id="0" />
        <mxCell id="1" parent="0" />
        <mxCell id="jtFjTk50ya7VGc4Yjmls-1" value="Cluster GitOps repository" style="shape=cylinder3;whiteSpace=wrap;html=1;boundedLbl=1;backgroundOutline=1;size=15;" vertex="1" parent="1">
          <mxGeometry x="130" y="220" width="130" height="160" as="geometry" />
        </mxCell>
        <mxCell id="jtFjTk50ya7VGc4Yjmls-2" value="" style="rounded=1;whiteSpace=wrap;html=1;" vertex="1" parent="1">
          <mxGeometry x="480" y="250" width="335" height="230" as="geometry" />
        </mxCell>
        <mxCell id="jtFjTk50ya7VGc4Yjmls-8" value="" style="shape=image;aspect=fixed;image=data:image/svg+xml,PD94bWwgdmVyc2lvbj0iMS4wIiBlbmNvZGluZz0iVVRGLTgiIHN0YW5kYWxvbmU9Im5vIj8+CjwhRE9DVFlQRSBzdmcgUFVCTElDICItLy9XM0MvL0RURCBTVkcgMS4xLy9FTiIgImh0dHA6Ly93d3cudzMub3JnL0dyYXBoaWNzL1NWRy8xLjEvRFREL3N2ZzExLmR0ZCI+CjwhLS0gQ3JlYXRlZCB3aXRoIElua3NjYXBlIChodHRwOi8vd3d3Lmlua3NjYXBlLm9yZy8pIGJ5IE1hcnN1cGlsYW1pIC0tPgo8c3ZnCiAgIHhtbG5zOnN2Zz0iaHR0cDovL3d3dy53My5vcmcvMjAwMC9zdmciCiAgIHhtbG5zPSJodHRwOi8vd3d3LnczLm9yZy8yMDAwL3N2ZyIKICAgdmVyc2lvbj0iMS4xIgogICB3aWR0aD0iNzE5IgogICBoZWlnaHQ9Ijc2OCIKICAgdmlld0JveD0iLTEuNzMzODY3MSAtMS43MzM4NjcxIDYxLjI2MzMwNDIgNjUuNDA4MjI5MiIKICAgaWQ9InN2ZzQ1NDUzIj4KICA8ZGVmcwogICAgIGlkPSJkZWZzNDU0NTUiIC8+CiAgPHBhdGgKICAgICBkPSJtIDU0LjIyNzgyLDExLjk4NjYxNSBjIC0wLjU3MjUsLTEuMTgyNSAtMS4yMzUsLTIuMzIzNzUwNCAtMi4wMDM3NSwtMy40MDAwMDA0IGwgLTguMjEyNSwyLjk4ODc1MDQgYyAwLjk1NSwwLjk3NzUgMS43NTc1LDIuMDc2MjUgMi40MTM3NSwzLjI1MTI1IGwgNy44MDI1LC0yLjg0IHogbSAtMzYuMzAyODcsOS4wODMzOCAtOC4yMTUsMi45ODg3NSBjIDAuMTA1LDEuMzE3NSAwLjMzMjUsMi42MTg3NSAwLjY1MTI1LDMuODkzNzUgbCA3LjgwMzc1LC0yLjg0MTI1IGMgLTAuMjUzNzUsLTEuMzIgLTAuMzQzNzUsLTIuNjggLTAuMjQsLTQuMDQxMjUiCiAgICAgaWQ9InBhdGg0NDU2MCIKICAgICBzdHlsZT0iZmlsbDojYzIyMTMzO2ZpbGwtb3BhY2l0eToxO2ZpbGwtcnVsZTpub256ZXJvO3N0cm9rZTpub25lIiAvPgogIDxwYXRoCiAgICAgZD0ibSAzNi4xNTYyLDkuNjYwMTE0NiBjIDEuNzA4NzUsMC43OTc1MDA0IDMuMTg4NzUsMS44ODUwMDA0IDQuNDM3NSwzLjE2MDAwMDQgbCA4LjIxMjUsLTIuOTg4NzUwNCBjIC0yLjI3NSwtMy4xOTI1IC01LjM3Mzc1LC01Ljg2IC05LjE3LC03LjYzMTI1IC0xMS43NDEyNSwtNS40NzUgLTI1Ljc0ODc1LC0wLjM3NzUgLTMxLjIyMjUsMTEuMzYyNTAwNCAtMS43NzI1LDMuNzk4NzUgLTIuNDMxMjUsNy44MzM3NSAtMi4xMjEyNSwxMS43NDEyNSBsIDguMjEzNzUsLTIuOTg4NzUgYyAwLjEzNjI1LC0xLjc4IDAuNTcsLTMuNTYzNzUgMS4zNjYyNSwtNS4yNzM3NSBDIDE5LjQyOTk1LDkuNDEzODY0NiAyOC41Mjg3LDYuMTAzODY0NiAzNi4xNTYyLDkuNjYwMTE0NiIKICAgICBpZD0icGF0aDQ0NTY0IgogICAgIHN0eWxlPSJmaWxsOiNkYjIxMmU7ZmlsbC1vcGFjaXR5OjE7ZmlsbC1ydWxlOm5vbnplcm87c3Ryb2tlOm5vbmUiIC8+CiAgPHBhdGgKICAgICBkPSJtIDQ0LjkxNTgyLDI0LjY2ODI0NSBjIC0wLjEzMTI1LDEuNzc4NzUgLTAuNTgsMy41NjI1IC0xLjM3ODc1LDUuMjczNzUgLTMuNTU2MjUsNy42Mjg3NSAtMTIuNjU2MjUsMTAuOTM4NzUgLTIwLjI4MjUsNy4zODI1IC0xLjcxMTI1LC0wLjc5ODc1IC0zLjIwMjUsLTEuODc3NSAtNC40NDYyNSwtMy4xNTUgbCAtOC4xOTYyNSwyLjk4MjUgYyAyLjI3LDMuMTkyNSA1LjM2NSw1Ljg2MTI1IDkuMTYzNzUsNy42MzM3NSAxMS43NDEyNSw1LjQ3Mzc1IDI1Ljc0NjI1LDAuMzc2MjUgMzEuMjIxMjUsLTExLjM2NSAxLjc3Mzc1LC0zLjc5NjI1IDIuNDI3NSwtNy44MzEyNSAyLjExNSwtMTEuNzM1IGwgLTguMTk2MjUsMi45ODI1IHoiCiAgICAgaWQ9InBhdGg0NDU3MiIKICAgICBzdHlsZT0iZmlsbDojZGIyMTJlO2ZpbGwtb3BhY2l0eToxO2ZpbGwtcnVsZTpub256ZXJvO3N0cm9rZTpub25lIiAvPgogIDxwYXRoCiAgICAgZD0ibSA0Ni45MzU0NSwxNC42NDExMTUgLTcuODAzNzUsMi44NCBjIDEuNDUsMi41OTc1IDIuMTM1LDUuNTg3NSAxLjkxLDguNTk1IGwgOC4xOTYyNSwtMi45ODEyNSBjIC0wLjIzNSwtMi45NDEyNSAtMS4wMTg3NSwtNS44MTI1IC0yLjMwMjUsLTguNDUzNzUgbSAtMzYuMDYyNzUsMTMuMTI0IC03LjgwMzc1LDIuODQyNSBjIDAuNzE2MjUsMi44NDUgMS45Niw1LjU0ODc1IDMuNjcsNy45NTUgbCA4LjE5NSwtMi45ODM3NSBjIC0yLjEwMzc1LC0yLjE2IC0zLjUwMjUsLTQuODkzNzUgLTQuMDYxMjUsLTcuODEzNzUiCiAgICAgaWQ9InBhdGg0NDU3NiIKICAgICBzdHlsZT0iZmlsbDojZWIyMTI2O2ZpbGwtb3BhY2l0eToxO2ZpbGwtcnVsZTpub256ZXJvO3N0cm9rZTpub25lIiAvPgogIDxwYXRoCiAgICAgZD0ibSA1My4wMzgzMiw5LjgyMjk5NDYgYyAtMC4yNTg3NSwtMC40MiAtMC41Mjc1LC0wLjgzMzc1IC0wLjgxMzc1LC0xLjIzNjI1IGwgLTguMjEyNSwyLjk4ODc1MDQgYyAwLjM2MTI1LDAuMzcgMC42OTM3NSwwLjc2MjUgMS4wMTEyNSwxLjE2NSBsIDguMDE1LC0yLjkxNzUwMDQgeiBNIDE3Ljg5MzU3LDIyLjcxOTM2NSBjIC0wLjAyLC0wLjU0NzUgLTAuMDExMywtMS4wOTc1IDAuMDMxMiwtMS42NDg3NSBsIC04LjIxNSwyLjk4ODc1IGMgMC4wNDI1LDAuNTI2MjUgMC4xMDg3NSwxLjA0ODc1IDAuMTg3NSwxLjU3IGwgNy45OTYyNSwtMi45MSB6IgogICAgIGlkPSJwYXRoNDQ1ODQiCiAgICAgc3R5bGU9ImZpbGw6I2FkMjEzYjtmaWxsLW9wYWNpdHk6MTtmaWxsLXJ1bGU6bm9uemVybztzdHJva2U6bm9uZSIgLz4KICA8cGF0aAogICAgIGQ9Im0gNTMuMTExNTcsMjEuNjg1NjE1IC04LjE5NjI1LDIuOTgyNSBjIC0wLjA4NjMsMS4xOCAtMC4zMTYyNSwyLjM2MjUgLTAuNjkyNSwzLjUyNSBsIDguOTIxMjUsLTMuMjUyNSBjIDAuMDYzOCwtMS4wOSAwLjA1MzcsLTIuMTc3NSAtMC4wMzI1LC0zLjI1NSBtIC00Mi40OTg3NSwxNS40Njc1IGMgMC42MzEyNSwwLjg4ODc1IDEuMzMsMS43MzYyNSAyLjA4ODc1LDIuNTM2MjUgbCA4LjkyMjUsLTMuMjUzNzUgYyAtMS4wNDI1LC0wLjY1MjUgLTEuOTg1LC0xLjQxMzc1IC0yLjgxNjI1LC0yLjI2NjI1IGwgLTguMTk1LDIuOTgzNzUgeiIKICAgICBpZD0icGF0aDQ0NTg4IgogICAgIHN0eWxlPSJmaWxsOiNiYTIxMzM7ZmlsbC1vcGFjaXR5OjE7ZmlsbC1ydWxlOm5vbnplcm87c3Ryb2tlOm5vbmUiIC8+CiAgPHBhdGgKICAgICBkPSJtIDUyLjY4OTMyLDU0LjUzMjExNSAwLDAuNzQgMi4xNDYyNSwwIDAsNi41NTM3NSAwLjgxMjUsMCAwLC02LjU1Mzc1IDIuMTQ3NSwwIDAsLTAuNzQgLTUuMTA2MjUsMCB6IG0gLTQuOTI4NSwwLjczOTM4IDAsMi40MTc1IDIsMCAwLDAuNzQgLTIsMCAwLDMuMzk2MjUgLTAuODEyNSwwIDAsLTcuMjkyNSA0LjI4MjUsMCAwLDAuNzM4NzUgLTMuNDcsMCB6IG0gLTMuNzE3NzUsLTAuNzM4NSAwLjgxMjUsMCAwLDcuMjkzNzUgLTAuODEyNSwwIDAsLTcuMjkzNzUgeiBtIC0yLjkwNDI1LDcuMjkyODcgMCwtMy40Mzg3NSAtMy42MjYyNSwwIDAsMy40Mzg3NSAtMC44MTI1LDAgMCwtNy4yOTM3NSAwLjgxMjUsMCAwLDMuMTE2MjUgMy42MjYyNSwwIDAsLTMuMTE2MjUgMC44MTI1LDAgMCw3LjI5Mzc1IC0wLjgxMjUsMCB6IG0gLTguNjY2NzUsMC4xMTQ2MyBjIC0wLjk5LDAgLTEuODc2MjUsLTAuNDI3NSAtMi40NDg3NSwtMS4wMSBsIDAuNTQyNSwtMC42MDUgYyAwLjU1MTI1LDAuNTMxMjUgMS4xODc1LDAuODc2MjUgMS45Mzc1LDAuODc2MjUgMC45Njg3NSwwIDEuNTczNzUsLTAuNDggMS41NzM3NSwtMS4yNTEyNSAwLC0wLjY3NzUgLTAuNDA2MjUsLTEuMDYyNSAtMS43NCwtMS41NDI1IC0xLjU3Mzc1LC0wLjU2MjUgLTIuMTA1LC0xLjA3MjUgLTIuMTA1LC0yLjEyNSAwLC0xLjE2NzUgMC45MTYyNSwtMS44NjYyNSAyLjI4MTI1LC0xLjg2NjI1IDAuOTgsMCAxLjYwNSwwLjI5MjUgMi4yMiwwLjc4MjUgbCAtMC41MjEyNSwwLjYzNSBjIC0wLjUzMTI1LC0wLjQzNzUgLTEuMDIxMjUsLTAuNjc3NSAtMS43NSwtMC42Nzc1IC0xLjAwMTI1LDAgLTEuNDE3NSwwLjUgLTEuNDE3NSwxLjA3Mzc1IDAsMC42MDUgMC4yNzEyNSwwLjk0NzUgMS43MywxLjQ3IDEuNjE1LDAuNTgyNSAyLjExNSwxLjEyNSAyLjExNSwyLjIwODc1IDAsMS4xNDYyNSAtMC44OTYyNSwyLjAzMTI1IC0yLjQxNzUsMi4wMzEyNSBtIC01Ljc0MTUsLTAuMTE0NjMgLTIuNjc3NSwtMy45OCBjIC0wLjE3NzUsLTAuMjcxMjUgLTAuNDE3NSwtMC42MzYyNSAtMC41MTEyNSwtMC44MjM3NSAwLDAuMjcxMjUgMC4wMjEyLDEuMTg3NSAwLjAyMTIsMS41OTM3NSBsIDAsMy4yMSAtMS40Mzg3NSwwIDAsLTcuMjkzNzUgMS4zOTYyNSwwIDIuNTg1LDMuODU1IGMgMC4xNzc1LDAuMjcxMjUgMC40MTYyNSwwLjYzNjI1IDAuNTEsMC44MjM3NSAwLC0wLjI3MTI1IC0wLjAyLC0xLjE4NzUgLTAuMDIsLTEuNTk1IGwgMCwtMy4wODM3NSAxLjQzNzUsMCAwLDcuMjkzNzUgLTEuMzAyNSwwIHogbSAtMTEuNTAxMTIsMCAwLC03LjI5Mzc1IDUuMDYzNzUsMCAwLDEuNDI3NSAtMy42MDUsMCAwLDEuMjYxMjUgMi4wOTUsMCAwLDEuNDE2MjUgLTIuMDk1LDAgMCwxLjc2MTI1IDMuNzYxMjUsMCAwLDEuNDI3NSAtNS4yMiwwIHogbSAtNC4xNDQ3NSwtMi41ODM2MiAtMS42MDUsMCAwLDIuNTgzNzUgLTEuNDU4NzUsMCAwLC03LjI5Mzc1IDMuMTg4NzUsMCBjIDEuMzc1LDAgMi41MTEyNSwwLjc2MTI1IDIuNTExMjUsMi4zMTI1IDAsMS42ODg3NSAtMS4xMjUsMi4zOTc1IC0yLjYzNjI1LDIuMzk3NSBtIDAuMDczOCwtMy4yOTI1IC0xLjY3ODc1LDAgMCwxLjg3NSAxLjY5ODc1LDAgYyAwLjY3NzUsMCAxLjA0MjUsLTAuMzEzNzUgMS4wNDI1LC0wLjk0ODc1IDAsLTAuNjM1IC0wLjQxNzUsLTAuOTI2MjUgLTEuMDYyNSwtMC45MjYyNSBNIDMuMjEsNjEuOTQwNDk1IGMgLTEuOTA3NSwwIC0zLjIxLC0xLjM5NjI1IC0zLjIxLC0zLjc1MTI1IDAsLTIuMzU1IDEuMzIzNzUsLTMuNzcyNSAzLjIzMTI1LC0zLjc3MjUgMS44OTYyNSwwIDMuMTk4NzUsMS4zOTc1IDMuMTk4NzUsMy43NTI1IDAsMi4zNTUgLTEuMzIzNzUsMy43NzEyNSAtMy4yMiwzLjc3MTI1IG0gLTAuMDEsLTYuMDc1IGMgLTEuMDIxMjUsMCAtMS42OTg3NSwwLjgyMzc1IC0xLjY5ODc1LDIuMzAzNzUgMCwxLjQ4IDAuNzA4NzUsMi4zMjI1IDEuNzMsMi4zMjI1IDEuMDIxMjUsMCAxLjY5NzUsLTAuODIyNSAxLjY5NzUsLTIuMzAyNSAwLC0xLjQ4IC0wLjcwNzUsLTIuMzIzNzUgLTEuNzI4NzUsLTIuMzIzNzUiCiAgICAgaWQ9InBhdGg0NDYyMiIKICAgICBzdHlsZT0iZmlsbDojMjQxZjIxO2ZpbGwtb3BhY2l0eToxO2ZpbGwtcnVsZTpub256ZXJvO3N0cm9rZTpub25lIiAvPgo8L3N2Zz4KPCEtLSB2ZXJzaW9uOiAyMDExMDMxMSwgb3JpZ2luYWwgc2l6ZTogNTcuNzk1NTcgNjEuOTQwNDk1LCBib3JkZXI6IDMlIC0tPgo=;" vertex="1" parent="1">
          <mxGeometry x="720" y="258.72" width="77.28" height="82.55" as="geometry" />
        </mxCell>
        <mxCell id="jtFjTk50ya7VGc4Yjmls-16" style="edgeStyle=orthogonalEdgeStyle;rounded=0;orthogonalLoop=1;jettySize=auto;html=1;entryX=0.5;entryY=0;entryDx=0;entryDy=0;" edge="1" parent="1" source="jtFjTk50ya7VGc4Yjmls-9" target="jtFjTk50ya7VGc4Yjmls-10">
          <mxGeometry relative="1" as="geometry" />
        </mxCell>
        <mxCell id="jtFjTk50ya7VGc4Yjmls-17" value="Apply configuration" style="edgeLabel;html=1;align=center;verticalAlign=middle;resizable=0;points=[];" vertex="1" connectable="0" parent="jtFjTk50ya7VGc4Yjmls-16">
          <mxGeometry x="-0.0505" y="2" relative="1" as="geometry">
            <mxPoint as="offset" />
          </mxGeometry>
        </mxCell>
        <mxCell id="jtFjTk50ya7VGc4Yjmls-9" value="" style="shape=image;aspect=fixed;image=data:image/png,iVBORw0KGgoAAAANSUhEUgAAAyAAAAITCAMAAADIN4jtAAAABGdBTUEAALGPC/xhBQAAAAFzUkdCAK7OHOkAAABaUExURUdwTLTS9MR0ZAYGBv9wPv9wPwAAAAAAAAAAAAAAAAAAALTS9LTR9P9yPgAAAM7u+Ob4/v///+D1/f9gQf91P/9qPMbg9P+jdvCkj/1+WOrCt+nb14dcTf3y8N6V+l4AAAANdFJOUwD+Dv6zVSxa44i4qlP/fnOzAAAgAElEQVR42uxd2VbcOhC84RV0pBHyfvj/37z2eNPSsrttz0JSNQQGQuaBqKiu3vTffwAAAAAAAAAAAAAAAAAAAAAAAAAAAMDT8fHx8dXjs8efBcNnn/1XPz7wAwL+WWqMvPiziYko+GkB/5RqTMwo+8c2ypknYAnwr+jGp3/0uRi+HSwB/nJyDLohZEYcc4EkwF+JWTlIdSh7aO/RI0ekciAJ3Dvw17GjpHihtTbWGjO+rRg+sT16spBM6YUEP1XgL2HHZ8KOQTCsXcgw0MMaGz4b3u7fYq3WJaUj4Ajw623HRxJZ9aphJ4Ewy8Oa9Vnw5enz4duHuCvWEYRawO8Wj4Qco2hYkg/Ew/jPCSn5hIwAf4d4lOUcMRlrjOU+1u+evxAJCWQE+KXiUfrSQUdRdvNZ+g+mdwlH8PMGfm9sNWjHdOxzMpHlhqH0ZngLgy1QBPil9OjZMaZtg9DK7rDCcoKvQEdAEeCXeA8/uOpDq0A4tg6+FXyPGRNfGhQBfrF6aBtkrNLzbw9Jh5cb7jkCigC/kh6TeOQMeagXlsWO9LuGd76MgCLAO0dXPj3CcsdOIlesIwFLAoog6Qu8KQJ6ZI66JVgRMcUyeeEVEwMVgYgAbxldBeqxU+vYrp4v5z7sX9zQnIAiiLOANzYfY3BFqodZmxAZWSsb/aHdiKVUBHEW8KbykVhzkgJUZleSvyKFKcj6QkSAt5QPUVVjSzeEPmRqbNQQEeCN5WPqvrW7JQ//178ge2V3qov9W7lMjEBEgHfAkttdzQczO3u4QkjXTabJxDXOgogAbyQfeqM5N1cNtOR5346y7HYjsFlFBOks4OXw5MOynbfUlwid/EIRhFnAm7hzLZmB2iqO2EP/OhnU1QizgHcIr8q1Mki3j8xGfCO+Skrs0ZQ617N7nb6+E4GIAC+2H9o7z5b4fW5u/cNjy54HCb7HhNtObDpgaG302uN7DYYAb5G90tu9uOY2ImldDG1DjLi9hD1GtVBnDbPwnwU8nx9+aXBrnPw2gyqn99BW0xj+ylKtWNxdD0s6C0YEeGV4Zbb6pG63lCGTYmSpERMl04xld8av7Bxmlcj3Ai/ih0lOqQnDp5AgczilhVi9h+Wnfw2MCPBaftBbGIKHR5BZOvQxMNq7El1Zs1lgCPBsfpT0QpIg4rn5BDGHybGShNuqYqOiIRgCPAufYWtivv5hQg9i9BXgt6VMggWGAK/gh84ez0BEruaHryPW2B0/EiSzsKMUeKp+7FcovDJI79G1vpAiVOLMzDeN+IUWryKCggjwNP0w2x3oq002D+BH5EZ2HxoaAryIHxkTcDN+q0kPfT3s/hUKS1oLGgI8kR+5UzmpiFcXtPqRsMTGIDqzpuHUgefxYy4H0v24Xt1DPxob04pRSg0MAR6Nr5UfuYmMx6StmBTZHByBhgCPxceX136VzWHdnk2Q0Yvkg6w1owaGAM/QD3pEKextfypBNLXQlCjPQEOAx/NDk2vZ08arxySudsrrO+MjM0OQ7AWuD7D86cFM92zID6ufyhDrL9rKjCpqzIcAD+LHZzoeFf2+Dulh9JORu9IwmNDV03wIGAI8hB/UmvXp4wvlg2w/IR3J3JeFgiHwAANShnvgcnMfL6FHks7KrO8tYdSBB/LDhJODRHK3j65exI8lzNq8UAGpLOBBBt3mdl/Z17qPzRbGdHi9hFEHrsVnOc2fm7iDw0bF89eFV0GYtSUkczkENgS4ih9/Fn6sxMjEV8fkoyy7rm3b+o7+SdeV14dZy11UGkEW8AADQl0RFeuHnB9l1/OiaZwqCqVU0X/onxSuaeq6685nsyyxad7CqAPXG5BMJ6A5E1715Ghczw3l1Ig7O+4YnruqbsszFREbrC1dtwGhXghcHGBlrvgI9UPIjrpyPQmU66GGt5kiPpQ7whH6ClHvARsCXKQfX2EHVsQRczS86trGDcdfjcSYFMSlDCkGIRFbkp1rqSxsCHBlgFXSV57Zo/zoatfHUM6p+LGKSEiUpu3kGmI2Fq4g1wtcwo85wDJ73YkC+9E2g+vo6TGJx50ZzvskFZFv1dTdMQ3JrCaamrLwXwycz2DpaAeVTf0HXz+6IWXlprhqpcX0Nr0rUhXpKVKejrJWbiPIAi4LsAxtdo/oR1cvOuFWZkRaolZueE971RH59XBeJcn3IsgCLstgET3uh/hR3r1HTA//bfzjJl4kwVbTinzIxgU7yGQBVwVYZGHaNyCWbz4UxQ8v3lqYEkRX3tOqPKQhBE8QZAFXCEhJj7DK+dHLx1LvWCMrp8IU1vL3lIBIRWS53o28ArGEhABnDMhXksFag3l5fNU1vvtYqx8zV3xhcX7JcKXK9F5g1iN22OASQwsJAU47dL03X8vkR3u3Fh4X/PyVi9JZa7JXUWFW0x3oy1qMVLxuET4dOOPQyVqCNL9b1spzHLH7cGFmaymsF3HNcH7mOnmyl7p8ekzSQUKAcw49yQKJ+VEVKkxVOf8dZUiCrpPUjLQnyyHWL4ZAQoDTDj2wucL+xK4pwnJ5WANRhKgsfVkxS2ZZqQUMyU9QwacDpwSEvlxWzA+v6yp6i+IqF7KnoHEnTi1JZWU2CSPVC5wUEKpnXMwPP3UVZKpc4MsDEQlcyJLL8ilTs406meT1l5xAQoBjAmI2KyCGm94NWeAU0W7iR1wrUv+h1mirPmtD7JLq/YANAY46EEvdjiPgRxHVN9Q6++EixhAo8lBihhAyoiEhwFEBIe8hlAVYZVW4qALoXNM0zsvmpuTx+ZHkspQ8l7WxTxjVQuCogGgyNBFVCIf8rtdaMrSaNNUdTaNYyKR6lYgh0c3Q/mYgCwkBDgqI9k5T2sPLqqDXRVAH7D9WKzzRcPsEWXrf/S9xK4aZXaTr6BRqIYDYgWzOELIMSOuickdT+XDHJWQOt5pS0LZIXqsICQHOpbDoAItl0JO+koAf1ehEuARZ0rzKz/xWkr3W8QYglNOBEwKSXtkkE5DynsDyCoIuFJCeIQIJUUlzr8yGjFNSREF9qoXApgNMfHgOJNr+LAqwaueimfMqIci+htCDU94XO1mQlaxyQFMvIOPH174DsbwAK2osSQhSSWIsRXf2cm1ILtMLCQGkEVY5XSYV536EAdY8ALLkeJuEIFv5K0apcGRIK5EQYgMQioWA2KKXyY44X0BYAVY8Zp5aEFEeK08UZq43ubZhpQtsOnA0x+utNJEFWHMLr9dRkoZYSpTHUlRbL7/lxO4syfoCQwC+Rd9wIDwBCchx5wdh0kWVEJIeA7ozTYvzaCHWLAL8CMvEbYrCGnqXTEFRCtI4joJsNiyOm07Es1NRDyZsOiCKsDRxj5ksxVv407UTW4omSWKd4IfnTVwriLFsOmMImw7IIiyiiC4TkMLfdrWsMolserPRxiuLsSotD7JWc7WOheD/H9jhx1oEiVpgRQJyX9IQH/3hppwm4ceZEEsJU72Wvk7HoBQCsCOscrbomU3VAgcSEiDuNhlvllLuAg/Cni7MJrIQYwEsAflIiyBRhMXsck+P/kiQiSJNo9j82C8VshtOsndOTRKCGAvg5LDCRt6gC4s1JjXWQOLjPzNkuMXWOae4/NiJsUQD6tkLQxBjARwF8XJYwTYQkYC0mRUMy/KfeIXiqTSWsCPLGupCUsRYwIEcVjpIaJkWnWKIIx8nS4XqUEdW5NTtvEMOLb0AI8I66UA6lx2jdaGK8Oixa0KUxKZvL1lEjAVs5rDWG3MCDyIbtC38OwfDTT/hatHTHsSLs5wgxiLmQuZ+LJwBYI8g0VWdUos+b2ogLMiiHZL4ipHGksRY2V296McCpDmseZ/JwUl0RVIkvDznshBL2tNr6TwWTAiwQxDiTkKRgLRuI3aSG/Rdgsx/K11wEpVCkOgFBBbEkOvcWQew3uGHyjiUkwoi2ZFFD98i0QvsJHl9C0Lct8a7LacqNsTBKaqEeIYgSrzfJG7Fsv59UyAIsGtBcvflsAhSut0S4AMURAl2WZvMkkWYECAnHeP6/695ltDSbSaaXQVxW+wQygfXg3DHpvR2w+LX/NMAgEk47pHV59dkQZIrpWT35bTFAQbsEYRDEfYaUjqPtXT0zj8NAFgDq/Vo5C2IZVoQdTU/GB5ECVbI6XTy1q4ufQYYAoT8mBDdl+wta+ARpC4u58eOgijxdSGZGOsPGALQqd0V5ckkb9kUl/Njv5I+UohLkHArlo2W9C6CirMB9IgERCcrq4VXojfu2QoiHSvUuZvTdfijwNkASIJE4+gygnQP4AerF0t4d3rsQIbBdBAE2CWId/VSNAqitaAT66kKIs3zZucKQRCARxAqy8s7e+31+sEbSh/yvCIFSSvqBgQBdghSZm+1NUyCTAO1y6Yf78PbKIjN3BRSgiDADkFONmL1BPHu5fSv81AnyiMUG777R7S9gVspDCshyQZSEATYIEic/ZRVQXRbTCZkOMEh7ttMTitI/LIeT9gKoo0x+bFbEATIEiS5ZkZMkFE6vjMojvDDefTIvKxk6nYcvKV8iAVBgD2CmGDnh9SjDwqSZceIwwryvfXCkpGpbL+iBkGAbYKsv1HnrbUyC9ITZIcfByjiNrTD54hAQQwjz4uzAVAEOVNH113zzYHUrxesV206LamEJG3LNjQhOBtATJAyOTQiBSnrbyaKB/Dj+9u1B/K8/u4fKAjAIcjBnbxM+RDHWQX/VSvhremW2mwCggBZgsSbawUevU1kommqeoRqDjPEUQL03QwgmNO0slq6SfePgiBAliCJb+UrSBReNVXb/SzDiLeftq5UbKo59FAJBeq6637u6Nq2SpjXsmOstLMfBAE4BLHpxVJC+1G1HjlmdHUjF5EohKq76EV/klet5XleS+V5cTaAmCB6vbpPVgYpK18aklO8oK2EGhI5DM6rchhit24JAUEAZohlmAQJ+FFl6XE/zI1AQ4pv5ut2lYwh1sQreu262AQEAbIKEoUezCxv7bvk2zZ+ai5BAv/RdNsvGxCvZqax4ss8QRBgL8Q6cDl66eWvqp/bLvyzXDDjq//Zu7LFxlEgOI4fE1kYCxmB9P+/uboFCJqW7MT7UDUzyWSdsNkNpeq7dfbc7nnAU48smZPwQYAsQYLkGc8Hsc49vnPgJkxY/FCGc6x2LDLLdkLcrKgEQQCKIKfmutfbdWfd4+Fpz2CIU/SYM69WaXIssjo7+keGhSbwQYDf8EH0YX549lAylOXwo2Me6xhv+lhbuhyNLhAE4PsgzIZbc9C+mhlS5CRkY5DlH2uYbsi+H33fEIK7AcQUxCs1YShIc4Yfnh9CG1jKHDl2Y0hzcLAJwrwAxwcRB30QcyR+Fb/KdAWWOXasZkuICJ0QhHkBdhSL64NsHrq9389eZUpAjvJu8/9JPz2yLT3smMLdABIKcsAHMecMLP8qEx5Ic5h3VnEkJFaJhTwIkHfSDyrIcsmbFAustSJlZKkUQ7YcetLA6s+1GWWiJETEyhVhYgH5KJZneOQUxJIXWZj2ertdr23imqclZL3jcQPLtv3B/bnR/PqmTDY74D26ZAoEARgKIjnVvJryFGw7sGNEK0kJ2eVCaAFpryPv+jdR6mlGLiSo64eTDnAIUrtLLRlzFVcXPXZPbX+BF4Lc2qg99IxLSEUKiGyHA8dTexhCQogxJ1EXBAQBcgrij6vN+SCWuMi9flxX9M96QYV6EwKiE/oxnTkxxBISYshSk30uHf0gAK0goY+eMbE0cZFH++q2Petjn2MTc4AWyysmIGalx8w84lh9qFYRCgJkTazwwcojSMTOKR35GH7droKysapYDOsZFZCboyADQ4xI2ljNMR8EQxuAPEH8vX0kQeoiaWEJ7Vzi6a+kPx11QWJfUc/++Wq7xSRkOVbVvMFYyxsQBDhiYuUUxBJJkHa9w8ujvqWyelXMBbFJC8u13iIRMpNzQmQ8zguCACRBLsHevsxwd5N2QUR7W4yrhSctlbOItaLHXH+pHdd/pohN884c80EwWRGgCRIOdRYsgpi4j35zfJAEQe5RglDZeT2ce1sPHd6K9LGaUhCBwXHAcQXxxmKtDJGUj25TCrLe41uKIHofxloLFWNxL2lcF2R61x0nSOCBSEx3B1gEKecs4ea3UokQTXQ0jU/6jR09LmThVLUPYkWzIPbmyVKCeGuGv2aNHsV+EOAIQRyzg0ylP4l8d+3QY7rKliKIV2xC1ne1m2czvdPEsc2xDTogCHCIIIKeXq2pisL26kZjExZWVEEUWYhlbjc3U3htS4ogNbuhUGKJJ5AlSL1bjUwQZJ2nGCVI6WQJ4wlvNyDrKghNELEybzrY3I8riBSR/TkwsQAGQY6MdycVZKkJmVHf36Qg97J1/XQjzhBEyv2OKSgIkCXIZbd4iSBIremxI7bd9MNm+m5jPkiqSXHQkMXAivNjPVYzXRC5d0FAECBOkEQm5FiYd7zIQk+Vt60Rdz5BqiLbxWvmc9vUuU86irUPYO23QIMgQIQguyq+O0EQkxvMI0RpjJX3JD/Wm6wiJtaT6DyX1pgyfWwmDyKEn+2Z/1tBECBHkLlckRfGMpzJPIKgR6LUJNPnPh/LmQehUwKyLEFxnwc1CALkCZLaECLTxYrP+1l0D4og3dljLV2sKCMz48J2KRAEiBFkV41F5dKXjtvmNEHiLYXq7Kit3bE264I4zwIQBMgTRAq/55ZyQnJhLP7wOC+IRRZjHTo2kSeMLc/ZuSAgCBAjSBnEecnxo/rFmxx3QeiOwiPHas6W9OhIExAESBAk9EF+0wmx8aEN6vGajZVzQUR+gycIAkz4vqSKTQ44IWdv8vPMVJMDx9qa3wwSEuQbdwP49+/ra7sSPyNZZJA9IzMh+iUJ6RJLdKrX4lhdZgOC8ArOZDxNePnC5QAG/Kz8+Pp2U4XLvFqy5N2+ZAzp7OhR89Kxpib70WNjR1dB/cHNAGYR+R7x8+/rx51sso10vjNsrDPGkE0Pr368ICGdWifD5/rR98tzfn6m/xnQDyAhJrVMLQmhkulnJOSZGBvnTnfXLwgIr1Jxcdnr1bD66g1PXAYg5bEHKTSmhDy709m89+4HMblV0G5DsTMWC545kDe26siSEHoJwukNOs7+nP2e201CnqeP1TVnZpzvgsC0AvI21r5MiWorbE4t23QMrAe95FafPdaW3DT6lgWBaw6QEuLP/pFhW+Gd2qFzzBpyNhTGFqVvEnIskqVzi9IlNTPuGwIC5J2QUqSW3VKjG46FnDZPQVXxPelriKs5wJBtq1tqXENkr5TcXBAQBDhoY03NIVRnen0iKLvx45Hgh2Nk8aXJOdbQA3/C3VKwsACOifXlLbvd993eyUWF7Ku8GUJxAyswsrjujcMPndmP7q9ilE6QFwBycSzv+ervKiRn9DLNoc7hh0oKiGNkPZQ+eGyT3nsQ65Za0ui4AECGIE4yXcb6CqMTFmvtXOWsmWUbhx8FgWr7PEaaxT4dfrDXP3uVvLCwAGYca2IFdz7WNkJuuMo285wvHgwHxO+cymtTZ9zPtXVu5Ki/HwQWFsC2sdaCRbevMCMhroaQFOmMIx85friO+nAsQRHv2MaU+d2EsUJF/PgBbhwrLFjc3HRZ5jRkoEiXoIfy+JEliMeQniKJY71/OcWPMP0xPwRgYQHHbKxS7OqVcivTXQ15qEYHHOk6oz12kP75amRV3pc8Gh1ypGdH43+KLbMCEi5gg4AAbHzvpryzJMSNZc03tb/N1tqu/2P6W1wELxc8VCpyrFmO1U0TvPyk+CFiAxWXQl7UYQFsG+siw8nndL3JlA8JL+t4n1XTqMg/VwWXIUXki1XqWF2XtIDINfm5BbHhogNHJUTui16zEhKYWRQUw/1IOCIUCPeDKMNaXHQwBOA4IT/b7AZ3Y7rIS0hZWx5FiiP0YFNEkfLheyARCws/euCYmx5suMx7IW71O0WPE1AM+bAlzQ+3uMz5oESdInDcxqp3yQKOhJSlVkWOHtUJglRZiihdcgniR7IgIMAZCZEEQwRBkMG7SF7m4pjzwVaR4eUMQWSsj3Ab94M2dOCghEQYwjCytJof+OF1VkPg6gV6DF9cKRVl3SBKlWbyQ8bKsJAEAQ5HevfD1RhGlhkv6/C7v849TdQQlFVqJM0r7FgsrfHQgW7jn0Kt5ypTZkNYMrl3DfoBHPdCCAlJGllG+c/8GcUb2OEcOmrR8H5lXaW4IV4hl99bpxQEBDglIallIWmGmCrRY/4+hiRAE0TEQ7wScxSBlwJZTlkGK5JlfpsHySiX5eXQUccLfFJC7O9LRYIiFEGESMSwICDAewNZuUiW/ZSCFJbhgYSxXnggwEsSEtGQO80QW32GIZSCTMWWkbVSCGEBb/BCnBrYoQ+XNrLq5kMK0tSZRnSZakWHgABnJSQM9cpsMqQnyGckhDOoIbC0SggI8KoXQrghcTf9f6cgiT70xUOv4aEDZ/B1iU4AciREJgjy/1KQ3aqDYC/6N6qwgBeMrP0yhGUpW6Ie66k+oiDqSRbxit3OtTVHCH4A5yQkUfY+ZQzvUqQIUn1CQ1IEEfvvPRAQ/KSB1/z0fQxovmaJct4P0KOqEu0gYdPXFuUtkSME3uGnX0Tay03Uu3/CCYkTRKa++SWHjhAv8B4/fV+rIeNGlv4APwajTmf54QV5kQIB3umnR6b1JjREVx/wQaq4guyrr5a/rQYWXBDgVT/9sht0sD2Mow0hFeNCv11BDN2EHphaMLCANxpZUTt+zkanWgrppIV+M0miBInWJzo1JsihA68SZDaykm76niEmf/Wrqum0Yl/95nlGQVL1Vw4/EMEC3mRklbG9lyKqIVZxFKS7a2aToXp2+chxtS/mlbERP16EFwYW8D4jKxkuDR11m/XRq6H9797xeg+rZycaxXDSLW+KyfAtI0UIvDuSlXBD5g1/xwgypPXMuPUmqyGq0fd792jyXArmKjoRt10vCAws4J34jjJEupUb/ox3Rt671dNaQZUJdY1rc+vspp1hwonNryJ055iAH8B7GVKKmNUyf+CtTWdISNFOJcG6IdwLVU0bQU1b5dsUvWp3sUugy2AULwws4M1G1iWVCxGBldUwHIaitctu2iKhIqpYdh22+V2GXjtIvL3WH9MAfgC/wJC56TaypGkTkaGlMHuh1VUvXSUmamepat3Z2bUtYypjk2iQkkEo6wIDC/hFR136WXVnE67ktxT2TnrbOitqn0UgI6rZVtoKc2WYbFVDbwFBBgT4zVjv91K2KKTI1fZqxQj0tje99bbfrX4Odtf0q+rFw10k3V7zc32r4pltsBXrOltkQIBfY0j69i0a8mQkx4vHrfW31VqjnwN0uB7XXK+MINbcLxUfzhD0SIEfwPsZcvFqTqTnAUtPRMaGkCpnY91ChqTQ3tp8XGzpl9pzQ0b4gS504Lcc9fQQz9URYRWGVNfr1TLoIfTtxkmDjASRIi5t8zc6B3hRogj8ZihLSsrKklPHVD6X3vYM6fIE6Q2skSA5F6TQpZRBWFfG5lTDQQf+QkPSiTjJaAgZnJD+5rdZDSl7GmVdkFFBjJSEtCHAC/ylhjihUxmOuxWGsYewGgjSM0TS/LADPxhZkP5lk7avoB/An/jpc83JpaRiWUIYTtpicEJut4yGmOvIIk5DYWXClIf/N+gH8Af4DjQk2mZoOYOxhjjWwJCrmw7x0Q1uSo9HwbCxCiuoDqlVP+CgA3/AkDI642QuRTEVS0JGG+uaFBFhJn6MQV5OOwiVIFz0AxVYwB8xxA8XzeUn04e2YilI1fb6MdlZZq8eur2NL/cEYQ2iq6xIz+9a9AMJQuCvGFLLRM2iEJyGkOHNY2BAryEDCVrjhHxr3Q68uU0WFqd3vaebFZHcpXRH/MD/AP5cQ2JNuGXFnPtzXTByoW1brXX/dlGW6bWWt2C9sXOd8a7Wfcmf9/4HDCzgLzVE7pJy41vL2xDSu+n/sXcGXG2sTBhOCcSYfuz1nB2stv7/3/ktsMsyA4kkal3S97Xa3lyzGz08eWeYASId4U/8e1i+LOSEFL3lWhMgZxL0Z+Tn0N/V/xIhRet7eOC1zUJotZBoIwMHZJgNpMVB3OvTmR4Y8AH9bc2bZaXJLLlC6Vfb/u7LRFbMQ2YmBsZMs4HQa23bx3RKJ/iAvpMQ8dF6xtQykZXxMH8dFlQaMxByv9b0PJvO+u8H8nPoG6OsuMhQukjrGVNkXTKQgeGxBF1vllpOlfYLCp/kBsLr9NXzT/AB/W0T+SkIyRhpPkJnCrLyfCMPteKf0bVtv0j219P59BzlQejvA7IQIleITH9+tRqI3/4ncVHmIcNIzVtcv5Sd9z/AB7QBD8lrhjHMebFtJ4REQoZhn030rpAMMQFpI8S9PAkne0b6AW0kEfmxVETmbqy2EIvip3vjDpLKIkPjDG+cxXp5YnHef+AD2gAhP5/X2ayndcXUNQ7inPeQPAeZU/a3sMt165V+sw21nxFeQdsKs9IxbX5BiCNqz0ImD8lTjyUBGeMEVuuFfqfZXWYf4APaSJiV9Wb9piscxH+Mcz1kSLO8bwmPxiT9dzl5hfAK2pqJzO28ZK9wEL+g3L297bNM5G1coqvW69CflKEjvII2BchqIs/XArJ6iHPj27yAcKIjWUejg1BcDgL7gDaaq2eIhBVTzXjMn4ERH1XFwIoSOG2kJUBSawnsA9pkJvLsU5E/r63BES0TuRENmv9OXDTnIL7bPUvOYR/QtuIslZvIn9fmI57JymIHt5W2PpOwHCTDA/YBbTcTmVykHZCFgvVjtY32JN2fDpLhAfuAtsjIisirawYkd4r884oZXj/j9frjB2ofUC/J+ms7H2I2i0p0mlqxXtfoCnxAW0fk1bmr6KBkGjeKXhFdQf0g8hKPiroakmuyjvy0T+degAfUyXzWhIhfUngVIWtebm/gYwLkF/CA+snWdTxw8DoTuc0/XLSQF+AB9UOInsftlWNCS7YAABZQSURBVITcElx5+5j+pZGaQ/0AMr4uBvLFhMwO4uxo8GuHeuHDuNVA3Ncx4oJ5xBs4jd871AsgLgzdlIV8DSMuXTt8jKh/QJ3IjKOl1T9mN/kCOuxK4TjCQqBeUvTRb9fjsvH7ycmIS/HVEsjROI5wEKiPDGQarH4z0CwIsu7z4qw8r1nQo8lBYCFQNwYyUjxWMEtEPilhz9Ka5SPUTkZvIfAQqA8DGefRTJl9fEYy4qwM3dxchR9hIVAfgIwLIBQy9Wwey33MRRxzpPiPtIAk3NXAQqAeAqxxdEvviJtcJAPjZkayXD8Wz1PeTynEGlEthLauyMeYn3BgZZB1bW2klse44E5r81a8rUYaAnXgH+O4brpAGRPWXW0k8vtT91WY5KV0fs58Xw0PgTacny/jdHRsF4Y4sIklEc5mlb53q4EZX/P8MdvTgexyY5gItFE4jF5HaXaw4LLGPEcjSySygjj7J/vmSogm1o649daj1kjWoa3BoUcm7iDzWJaElLl35i7skTVGi1NXckegzEFWSEAJtEk4JCA5IXFulplEDQ9OilvZiA+Vq6pc+RI8JLAS6BvZUFU2oqhcLjgvM5QcFBGVK2rlmanMW5MWh9yeex2gBPouNs4OSukgcesqPVf1OB+unOKa6SAZcMWZ3elCus1B1oQIlEB/WT6wOm8f0xt3ueB8Gtc8YS+jKjc36ZaO4rLMQ5cOYvUlQHQABIRAf9tGVMhAtC2HpKk4iKZ1n1GbspGsspH3WpHj2XpKy+sOYszoKsYRwAAZ0LchsgRcAZQ17N+Zsw6SFRDPmkiihpyz7LAQ/0R2oQWQydMcA2O2DOABfT8n4VNFRwnRvlJipmka0vkbP9m8T8TJCd2Ybrh1I+vVd6oOQjYU0M10e4VYCtpwzJVyFDkVS2TYG38a79WjnuOJIel/5TUPqjgIWZXDCkGbZ+U9QNi27iQOBklcVHZbnAApExwLLqC+AbElIJVjpopNSCvm4gEpHQSEQF0FW7rmIFccXEi2vg8pVRxkegh8QJ2HWNY7CH18z4aqg6CFF+oMEF3MYil9Gx8VuyjTEvAB9aUyI1eVyadbECkBsQAE6g+QdxyEfMtIEx2aRA5ScRD8wqHOHURLB7kNEJ/tK1tcHL9wqHMH0cVDtzuIhoNAncuUb/Kf5SDllQjN7FD3DqIEM2QaATHvehFhLxOobweZ3/eJD/xGQERyb5SsqMBBoM6kTC0HIXs1IFQ6iKmEWPiNQ705SDGszS2ATKmKYZNWHjVTOAh+4VBngFi6/L4fBn6jg8gQS8ZvFoBAfQNiKw6ibnSQCiBoxYJ6S0IKB+HDulIQP+cgSr/rIOAD6hwQeyhDrKbuRdIHOAh0/w6idp/nIAV94APq3UFULcRqchBR9qgAgmZeqDtAxNt+DZCGJYZUtAH7+TAl5rUACNQhICTe5CUgO0cthIgKYwixyotDUF8SDqJ30kFMi4OUrVfBQYqLQ1B3gJBYsVEA0uggyogcpHZxCOrfQcqew1ZAROOVJr5pI37d0J05iC17DtsA8fvwyqwEgEDdybAh7N/2b3WQkqyKp0BQb4CIjEM8YtWusZIu+7pMaUaYxYI6U5FxSE+xqjkHYWUPig6C5SDQHTmILUOsdkB2rOQeGq/Ki0NQvzlIfJM/SGNorYNwB6mFWPh1Q33nIL6d0Mjqd2sOonThIBwZNPNC/SUh2RimCAh7pA0QoggIW2G4q3gKBPULSHQQxTxF73bNOYhwkNrFIagvPpT0C+kgxd5ZZwHZSQdRwlMACNS5g2glg67oIA0xluGxWHQQ9ghOB4E6BERfcBCisuXwooOUgMBBoN4BId4tdciHuTSGi4Dk7bxxzoo7CH7bUO8OspMhlmnNQUTrVfSL4uIQ1JmYg5hi6sm05SBFHzAcBLoXQLhf5PNacS6qOIzTH4lQ1EFMAciOFR3hIFCvDkJnHST4QOEglf16iz7g6CAsKwEgUIc5CBvVRlZGrKrMYlX26w2FQu49il8czbxQl8rHcGgGyZtyKz25yx5YZZLOvUfPDoIcBOrcQWwBCPeB4qDP8vCoOItVPJPXVOAgUO8OoqSDaFU5x7DYAn7OQVhNJWyCdRDxGwT1B4iofmfhUyitF7NY3mhM1UHyZzq1E0EXAIE6d5CQN3AH2VXPUt+VZ6BzB6F0LSwHge7EQebNc1kmoXfVgz6Vqp1gW3EQDQeB+k7SNYnNc3kmsduVRw1WbcUoXlOJG/Fq1EGgu+Ejvscrxx2kOAcnmIWpnYGecCBKgOSLDhFjQX3hYRzJViyeSZhKiGUrD9rlO4mfdcAKIaSxMxbUDx1K+7f1Im1gmYSpOIiV81OV70x2kb6NwiEiWiMTgfowD47HmkWzHCT4gi1TEHmwiJVeswDC+nnDDScbgY9Am5aZ6ZCnS0lAaiEWJUCKEEsVM2JiondlBD4Cbdc6ZjrK8l8BiFVlJX02GpmERJTK89bybhP/z/nOGvkItMG04wwd84KOCiAVB4lzXUbkIIed35SRitUfteUkCyRgBNqkdVDlFOc0WLMiec1BUiTGT+iUU1sx44/3TRckjkhM2gEJtAE4TIKjJpuVKLK6YMVBFmvgtfQpeOJTW5Tto7hMl529twEk0Hdbx1lp+S5etOQaslQ5aVCXp+PwZiz5Ei69CExtQd+YeBjlP5T/9H8J8W9nS3C1SLOzZR3y8I/DTjRj5b1XwV4O8sYmfTUHmAj0bYTEAbpTy3+yDz4wlaZilaypb0Et9oU34rFKa4nit46PLF8BCNRDMJZn8Etp3Vb3RzTlztTiW9FaAt1ZqsJmuKhW8VhtQWTp5ff6azkwAt0DGyGPFzPAab7K1ne30pWzDfIsJNXNMU0F3QUbVD/WnDvImnrzbbDKOnzsT1wr56AE6osNH1RlcHA81tKIkQdHLWjVANmFokdqLMkK595KMJsL9cJGVlePw3etdMfqXRZKUfWYKFMtj0yPp1SGFkrysqC3ElACdcNGpbad41E5g6qSpfPTPwzzpVrxHJRAG046JkJ8dMVltfNVdS160fnCj7w+zs+P4kvOA4Wheq7jRXOF24MQaKMOIotyl+rqkg9WHmdbalWWnF+s2CuUBqGOsDnzOK8cThywJ/FSIVWX0wID6H7NJuQqZwxkJ86eEk3BEHTnMgsedO6gWhl/BUTACPQP6DBP1pI4b0ok/HJvEzRgQf9AaGUiHTRvtFAUAzOXKXZ5j0WUAyCB7jTvSFUSvkyWanyocsX5XOrAWlroPq3Dvr9qXUZZdUSw4By6L+fIl62XeOjGmeDQxZv1X6FHEboD58ibT2yZVtiLO4ZWNmmUnbyABOo+51jZILl/1eGdq5i1+ypv47Ws+woTwFB3YhueUPqY9xpxOi7jUE2g+e4rp9mVshqKb8vChqPQnfnLl347BEEQBEEQBEEQBEEQBEEQBEEQBEEQBEEQBEEQBEEQBEEQBEEQBEEQBEEQBEEQ9BVSB3WYpL7u+ofDw8PhcNVTHiY9Pj7456kvelHhDvEWGARQfRg+nk7H497ruD+eTo8Pnzsc/Q2Ox2EY9vthOD62DMTDITzFP2HW/nT61Jflf+zph47X3g/+Zz/6nxwDAmJj9xTIGNaBGMbL8fRJQ0X5G4SrJh0fG14Uf0p66ie9LBXuIG8xYTLd4RGMQPNAfDwN9YEY37I/PBjDONyXNzhdpmO4pImRj/pIeFWXbgFGoDBM9sPwzmA8fIi/47kLP97wnATu/kMDeIJ2v3/3Dicg8s/jMbyHR3yzf7gdjwsDsX7Vw+nY8pqG2xFRD213mH5wIPJv49Gq/U0jRb3jBKfb3CMzt5sCrYcr7gBE/t3c4//tXduSKycMPIWquD3M/39uZmzHVyQQaHa90J1K8rBre/CqaUlIIpPCToiS0xtizY35TEipjPegiDqn5bPqA3adwuDTBbF7GbQpbVHnZ/lE1U9IY8Z7fQ938ropQkQWlA+9JW4qEfEtUpA/JKfjsTT227fuGCAii0UfXZZIikgktUU2r6+hnqfSSJuPfZ+wwc1aix+dltjubaTGCPjZ+cm9T7VL28nrRqy+FNLWjyaGuKw3bJcHnmprYkiisxcOrM6P3ai9GT+e38vFoadq8YESjRAEofoq6asxfjQwpD0Qzs5GP2qFK+P6AYZAP6ycDYWtBzt+VOOQsJ29cAD8uG2lojvTbOuPHJYzeKoKQwz48ax4wLT5KxNDMfFksiVrD4YEKb+7nb1wYAIY2YmwWbfv1I+w2oa1UpBg4MJJ5ZXALAF6NLITNlBvZWDMjxqq7tO79g0+bVZAGLJyAEIxp3Q0Z197YyUDd30ByNHKe2n9fn5NhR9H9+8Fqdq7krpk7Vj2/RM6Fw7M4GDJf/pbK/bVAnylkyrpLZFyusqGaw+L3rprXaXTsKxssnBen+qhZ10LB2Z3sAotrE4yxqIpepLiFq99qlJHlHNiw0jWCWe5usxLNfcEJ2taB4u0HYNS511WWSLf/Mc/FdeIsVNEFUV7fYWVduHA1BksIT8qnFB4hYDwpX49rxHaqkpnNJmvYhe+rcSKDjJZi0XocqEqa4u53RKT/qkqB+M8cUOzgFSO/djSX0jInAJCnVEnqzy+8RNixwFevcUjtaaZcm+03bxwYOYIpJ6V4YoPc5slihVMqb/qKbRJiO/PRnEHNJCQdVJYTa1G5a30/eCa2XDFrA/zVE0tgi408TYNtFhxGTZIyHwII1l9xvZDg0SROHUkDBV0pAbzdTRymuGHXg38IeSGnnDlZk3x5Zdih63nkQZazqlLVQpS83n44MuBvxOi01CDQ7Ec5MV78oy/49TK1F5UXg4SYpVDisaOBB9rXQ9LkdEve+OhZkkVSwyj1ld9gzIFFS7S8BsAf9fDyqMMy88MIr0hFXVJNWEnV8y3WOil8pCKC4+wqMlyWGMO1lECFUuHyq7yCRVLjKO1Ts5XeJuGmzrc8EMCfyAEGfcTikkqL2+06fSnKnZCPfG2pGvKEDugcWp+pPFIs+iMB/ETahIVDOJf+T2KD60MICzeA/j2EITGz4Oz6MzkjhgnGXj3RdfuXrrvLdyjvI1/ecB3Ixp4CUGyk2KIEvTuEam35izt76F6etO5cJyEzBWjR4Ncvpfc+eIP/Q/QVuZtsvCOSmdIiNKnj9H1TkIU3BXfsVWXnHv9zuyl/T2bxNcZR4WTo3QaoB/oXwpkfMs+rpEkvTqSkiDehCBIY01FEJO/cCHRew8zQkc44fuLwyrCdnfuosn80DRUhACsQhDpXXpsyNukTzPv+ZWO9+NvfX3A98boycTTsCZI+AGCGCSxzB4U+Fpkk2IJLxGE9JtsMTLqWBxpCNJzghE2ixAOmJwgzp+vIHS6gvScYEBBFiTIZqQgrl9BrGIQnYLAxQJa0jC/H4M4m9MZUR5Py2IhSEcWq+1djBVET5DSOcidIDbBVyYQZDmC6L19l6zTvFGsVG91/LQEwUk6cM5enY0V5J9FhVhR1+4EsanFiuiYmp0gZDCZw0VjBZELcUdoew/Sg8XOgGre6WFTzbtZK0gyMF+5I9aiJcvkMYHvhsFe7cT27h4Fcad1FD6KjGk8+nKELO/0SONeAjP4Z0RBDHrSmdFzd5ad1pMOF2v2NJY2Uxk2awUpc053TuFJJkjahvNYEZPj1kxjKXfS8pjPIQWpTrXqfaoHQcanWgUafQfgD2B4PmBlzHSfgoTBuaDcBaAkjjUhjXY6TFZcNgjRmKJjLv8YUxA/eP0Gdz3B0ylFVl/J0PDF4Rx9NjjGFN2YnQwqCOu3DSXWXgkQxjhYfjlOQeZjSBy66IK9y3xMQTjHzbsB630liB9aOHPHFDysRXyswQt0xhXE1WKILn68vD4P3NHjMuH2g1XyWNTPkH0fPUlBhu4opCaC+K2bIVzgleFhTQjmj00tl3jypjioIPzNuFWGhNhGEPaW2/o5Ztw2hOjrSAhnTbk2Ypr1rwwU5F/uuDua+8AyQVhPrNJWzt1xCwFZS0I2km1RtMRhBeGvbxftl7uZuhjDsL8rX1BNGwQEEnK9B4cXkZBFfowrCJtAFkTEpbgpCOL530ueXTf7IhTyTgrHmyJHkRo9DBREyJDttliqCfShQo+PLFjm1x2LFBHXjRTWtBISBYZs+d1UfMpU44eBggjZ2kNF0uuZiAupSo8Pgng+nt8p8s7CyroxEGteBNmqdltJwV8QQo51dpgoCJtMvdVNbU9PlXIDOwrnKEFeNynWjUP0qeN0qljKbhyX/1w0pQUGCiLE6ffH2uhit23PVDhozA2vbFo3hlav6mS97trNMFCQmrJ14IMgTQtvIRGKTBbNZPXCQkGkTJYRQawWjgzW7Jks683aREHkMMSEICYLJwQg8yN9o4IUL/IwJYjJwiMyvAtoSPpCBeFbn+wIMs4QDIsDQ35LQcSzCitTTqP6AQcLDPktBbHVkDJBxhYekeBdJw6h71OQagGihTM0sHDEHyshxO9TEEtpY6OF7oVn8GMpmO3WkoLoL3kLZxOkN9RBAdZ6gUiHoQgkCDZlrz3E1V1O0CNTCD8gIk1m8lnRRO62tXqjsj41cWPQ3iIVtAtPcK/WFBGdQ757GR8yQffSi8JZePoB4sb9qdTXrLmkWXiGfCzsZ8X2IPXQg3cJkQa09R+rNW/x124n4ZZbloSpXaAQfaytIrltF3W3EJcViXcJGap7bXqq/5sBuy7q9E19V6AH4HyqtEA8N/W9MiQL+aHButeaAVMO94s6aetRLx8qCa0I5wo4GLJv2ImzlaMh1TtXjhDecp/PP6Lh0ThuFzeWI/m5Ebf/quejuZZnB0Jz4Hk/TTnGV25cyFEI7elqQR8/e4Q0RnnRXd3yuwlfGnBffqtTQR7rflPQo/MYZVdAyVqOpuwUUgoh+MNGXNls998p76/uoNluwc70ofYHSjtT0vFcu5y9v3m/gjwWtH9Evn0Ev3AAGHeMznsu7q2HCQIAMyOishAAeHGJmM0DLGDnvTbtS7k3fJ/ATAg5RurMrAYMHwFmp8ct0Uqx4/i9dOiO6VXAPHg6ySf9AWOxUxcVIsBE/HjpONF6RwED2IGZ8TGYV+kelTwsclAQYA589pHozjACBoQCUwvIYIRdrItHjA5ME4GMRRDlKQ8IQYBZUFKA9kxW+VYDnKMDUxOk3UUqNx7CwwLmJkjrTMZyLyRKeYHZCdKWyQqES26AyRH6bxoIlWmoAPD3wVzgSdWmXW5MKW6BAubysbhxEXI9FT9BFAICTCUhsWegOvsqCAgwGRI/to2bqS4NRoSAAHNBuFmKYmlutDhTDiksYDYIl4LQ0Wb4Uprr5amkmNYATBiny3eSxHgZiBXCMXSrMkwXh+jAjHF69U4QuvxLVBkjDAcLWMzJwkWbAGB07S4hgwWsGIZob9wFgNngDBiCAB2YOFDP4AcAnMcQ3GQOgCHgB4A4pCd/Bf8KWACp9/wD+StgCYTYw4+M80EAgQjCDwBgJzHw8gH3ClhLRBR1J4TqEmBFP6uRIkfLIfwrYEWK1KP1crshACziaMnh+tFpiG8JWBjOsw2Endd9AsBsOnJ02cYXvyrm5KEdAPBgifchpHRpTAc3AODT2zr+cdf/AwAAAAAAAAAAAAAAAAAAPOE/WMXnJBy1slMAAAAASUVORK5CYII=;" vertex="1" parent="1">
          <mxGeometry x="530" y="269.5" width="91.9" height="61" as="geometry" />
        </mxCell>
        <mxCell id="jtFjTk50ya7VGc4Yjmls-10" value="Cluster configuration" style="shape=hexagon;perimeter=hexagonPerimeter2;whiteSpace=wrap;html=1;fixedSize=1;" vertex="1" parent="1">
          <mxGeometry x="515.95" y="380" width="120" height="80" as="geometry" />
        </mxCell>
        <mxCell id="jtFjTk50ya7VGc4Yjmls-11" value="Cluster Admin" style="shape=umlActor;verticalLabelPosition=bottom;verticalAlign=top;html=1;outlineConnect=0;" vertex="1" parent="1">
          <mxGeometry x="180" y="560" width="30" height="60" as="geometry" />
        </mxCell>
        <mxCell id="jtFjTk50ya7VGc4Yjmls-12" style="edgeStyle=orthogonalEdgeStyle;rounded=0;orthogonalLoop=1;jettySize=auto;html=1;entryX=0.5;entryY=1;entryDx=0;entryDy=0;entryPerimeter=0;" edge="1" parent="1" source="jtFjTk50ya7VGc4Yjmls-11" target="jtFjTk50ya7VGc4Yjmls-1">
          <mxGeometry relative="1" as="geometry" />
        </mxCell>
        <mxCell id="jtFjTk50ya7VGc4Yjmls-13" value="Push configuration changes into GIT&lt;div&gt;repository&lt;/div&gt;" style="edgeLabel;html=1;align=center;verticalAlign=middle;resizable=0;points=[];" vertex="1" connectable="0" parent="jtFjTk50ya7VGc4Yjmls-12">
          <mxGeometry x="-0.2778" y="-1" relative="1" as="geometry">
            <mxPoint as="offset" />
          </mxGeometry>
        </mxCell>
        <mxCell id="jtFjTk50ya7VGc4Yjmls-14" style="edgeStyle=orthogonalEdgeStyle;rounded=0;orthogonalLoop=1;jettySize=auto;html=1;entryX=1;entryY=0.5;entryDx=0;entryDy=0;entryPerimeter=0;" edge="1" parent="1" source="jtFjTk50ya7VGc4Yjmls-9" target="jtFjTk50ya7VGc4Yjmls-1">
          <mxGeometry relative="1" as="geometry" />
        </mxCell>
        <mxCell id="jtFjTk50ya7VGc4Yjmls-15" value="Read Cluster Configuration" style="edgeLabel;html=1;align=center;verticalAlign=middle;resizable=0;points=[];" vertex="1" connectable="0" parent="jtFjTk50ya7VGc4Yjmls-14">
          <mxGeometry x="-0.0074" y="1" relative="1" as="geometry">
            <mxPoint as="offset" />
          </mxGeometry>
        </mxCell>
      </root>
    </mxGraphModel>
  </diagram>
</mxfile>
